<svg xmlns="http://www.w3.org/2000/svg" width="1080" height="1920" viewBox="0 0 1080 1920" font-family="Montserrat, 'Arial Black', Helvetica, Arial, sans-serif">
  <defs>
    <radialGradient id="bg" cx="0.5" cy="0.42" r="0.65">
      <stop offset="0" stop-color="#23281a"/>
      <stop offset="0.5" stop-color="#0b0c09"/>
      <stop offset="1" stop-color="#000"/>
    </radialGradient>
    <radialGradient id="floorGlow" cx="0.5" cy="0.5" r="0.5">
      <stop offset="0" stop-color="#d7ff1f" stop-opacity="0.5"/>
      <stop offset="0.4" stop-color="#d7ff1f" stop-opacity="0.12"/>
      <stop offset="1" stop-color="#d7ff1f" stop-opacity="0"/>
    </radialGradient>
    <linearGradient id="king" x1="0" y1="0" x2="1" y2="0">
      <stop offset="0" stop-color="#050505"/>
      <stop offset="0.35" stop-color="#2b2f22"/>
      <stop offset="0.6" stop-color="#14160f"/>
      <stop offset="1" stop-color="#030303"/>
    </linearGradient>
    <linearGradient id="rimL" x1="0" y1="0" x2="1" y2="0">
      <stop offset="0" stop-color="#d7ff1f"/>
      <stop offset="0.12" stop-color="#d7ff1f" stop-opacity="0"/>
      <stop offset="0.88" stop-color="#d7ff1f" stop-opacity="0"/>
      <stop offset="1" stop-color="#d7ff1f"/>
    </linearGradient>
    <linearGradient id="pawn" x1="0" y1="0" x2="1" y2="0">
      <stop offset="0" stop-color="#3a0606"/>
      <stop offset="0.4" stop-color="#c81e1e"/>
      <stop offset="0.7" stop-color="#7a0d0d"/>
      <stop offset="1" stop-color="#200303"/>
    </linearGradient>
    <linearGradient id="tile" x1="0" y1="0" x2="0" y2="1">
      <stop offset="0" stop-color="#1c1f16"/>
      <stop offset="1" stop-color="#050505"/>
    </linearGradient>
    <linearGradient id="fade" x1="0" y1="0" x2="0" y2="1">
      <stop offset="0" stop-color="#000" stop-opacity="0"/>
      <stop offset="1" stop-color="#000" stop-opacity="0.97"/>
    </linearGradient>
    <filter id="glow" x="-50%" y="-50%" width="200%" height="200%">
      <feGaussianBlur stdDeviation="12" result="b"/>
      <feMerge><feMergeNode in="b"/><feMergeNode in="SourceGraphic"/></feMerge>
    </filter>
    <filter id="softglow" x="-50%" y="-50%" width="200%" height="200%">
      <feGaussianBlur stdDeviation="5" result="b"/>
      <feMerge><feMergeNode in="b"/><feMergeNode in="SourceGraphic"/></feMerge>
    </filter>
    <filter id="blur"><feGaussianBlur stdDeviation="4"/></filter>
    <filter id="smoke" x="0" y="0" width="100%" height="100%">
      <feTurbulence type="fractalNoise" baseFrequency="0.003 0.008" numOctaves="4" seed="21"/>
      <feColorMatrix values="0 0 0 0 0.8  0 0 0 0 0.85  0 0 0 0 0.7  0 0 0 1.5 -0.8"/>
    </filter>
    <filter id="grain">
      <feTurbulence type="fractalNoise" baseFrequency="0.9" numOctaves="2" seed="5"/>
      <feColorMatrix values="0 0 0 0 1  0 0 0 0 1  0 0 0 0 1  0 0 0 0.06 0"/>
    </filter>

    <!-- pawn shape, origin at base center -->
    <g id="pawnShape">
      <path d="M-70 0 H70 V-18 C70 -30 55 -34 45 -36 C40 -60 30 -100 26 -130 H40 V-146 H-40 V-130 H-26 C-30 -100 -40 -60 -45 -36 C-55 -34 -70 -30 -70 -18 Z"/>
      <circle cy="-180" r="40"/>
    </g>
    <!-- king shape, origin at base center -->
    <g id="kingShape">
      <path d="M-170 0 H170 V-34 C170 -56 140 -64 118 -68 C112 -90 104 -110 100 -128 H128 V-160 H-128 V-128 H-100 C-104 -110 -112 -90 -118 -68 C-140 -64 -170 -56 -170 -34 Z"/>
      <path d="M-92 -160 C-80 -260 -70 -360 -62 -430 H62 C70 -360 80 -260 92 -160 Z"/>
      <path d="M-120 -430 H120 V-462 H-120 Z"/>
      <path d="M-100 -462 C-130 -520 -110 -590 -40 -610 H40 C110 -590 130 -520 100 -462 Z"/>
      <path d="M-22 -610 V-650 H-62 V-692 H-22 V-740 H22 V-692 H62 V-650 H22 V-610 Z"/>
    </g>
  </defs>

  <rect width="1080" height="1920" fill="url(#bg)"/>
  <rect width="1080" height="1920" filter="url(#smoke)" opacity="0.5"/>
  <!-- top spotlight -->
  <path d="M470 0 L610 0 L860 1180 L220 1180 Z" fill="#efffd0" opacity="0.05"/>

  <!-- chessboard floor in perspective -->
  <g opacity="0.9">
    <path d="M-200 1180 L1280 1180 L1080 1020 L0 1020 Z" fill="url(#tile)"/>
    <g stroke="#d7ff1f" stroke-opacity="0.18" stroke-width="2">
      <path d="M0 1020 H1080 M-60 1068 H1140 M-125 1120 H1205 M-200 1180 H1280"/>
      <path d="M135 1020 L-15 1180 M270 1020 L170 1180 M405 1020 L355 1180 M540 1020 V1180 M675 1020 L725 1180 M810 1020 L910 1180 M945 1020 L1095 1180"/>
    </g>
  </g>
  <ellipse cx="540" cy="1110" rx="420" ry="90" fill="url(#floorGlow)"/>

  <!-- fallen red pawns (objections) -->
  <g fill="url(#pawn)">
    <use href="#pawnShape" transform="translate(190 1125) rotate(-78) scale(0.9)"/>
    <use href="#pawnShape" transform="translate(905 1135) rotate(82) scale(0.95)"/>
    <use href="#pawnShape" transform="translate(300 1165) rotate(-95) scale(0.7)"/>
    <use href="#pawnShape" transform="translate(800 1170) rotate(100) scale(0.65)"/>
  </g>
  <!-- distant standing red pawns, blurred -->
  <g fill="#7a0d0d" opacity="0.55" filter="url(#blur)">
    <use href="#pawnShape" transform="translate(120 1040) scale(0.5)"/>
    <use href="#pawnShape" transform="translate(960 1040) scale(0.5)"/>
  </g>

  <!-- king reflection -->
  <g opacity="0.09" transform="translate(540 1110) scale(0.75 -0.09)">
    <use href="#kingShape" fill="#d7ff1f"/>
  </g>

  <!-- king -->
  <g transform="translate(540 1110) scale(0.75)">
    <use href="#kingShape" fill="#d7ff1f" filter="url(#glow)" opacity="0.55"/>
    <use href="#kingShape" fill="url(#king)"/>
    <use href="#kingShape" fill="url(#rimL)" opacity="0.85"/>
    <!-- lime band -->
    <path d="M-120 -430 H120 V-462 H-120 Z" fill="#d7ff1f" filter="url(#softglow)"/>
    <path d="M-128 -128 H128 V-160 H-128 Z" fill="#d7ff1f" opacity="0.8"/>
  </g>
  <!-- crown spark -->
  <g transform="translate(540 548)" filter="url(#softglow)">
    <path d="M0 -40 L8 -8 L40 0 L8 8 L0 40 L-8 8 L-40 0 L-8 -8 Z" fill="#f4ffb0"/>
  </g>

  <!-- bottom fade + grain -->
  <rect y="1150" width="1080" height="770" fill="url(#fade)"/>
  <rect width="1080" height="1920" filter="url(#grain)"/>

  <!-- text -->
  <text x="540" y="1405" text-anchor="middle" fill="#ffffff" font-size="50" font-weight="300" font-family="Georgia, 'Times New Roman', serif" font-style="italic">quem domina a</text>
  <text x="540" y="1545" text-anchor="middle" fill="#d7ff1f" font-size="148" font-weight="900" letter-spacing="-3" filter="url(#softglow)">OBJEÇÃO</text>
  <text x="540" y="1635" text-anchor="middle" fill="#ffffff" font-size="74" font-weight="300" font-family="Georgia, 'Times New Roman', serif" font-style="italic">controla a venda</text>
  <rect x="440" y="1690" width="200" height="4" rx="2" fill="#d7ff1f"/>
</svg>
